<svg width="25" height="20" viewBox="0 0 25 20" fill="none" xmlns="http://www.w3.org/2000/svg">
<g clip-path="url(#clip0_1152_3258)">
<path d="M23.7671 6.5272C24.0601 4.82972 24.9922 3.1312 24.9922 3.1312H20.8132C18.4654 1.08136 15.62 0 12.4629 0C9.1917 0 6.2377 1.09824 3.90559 3.16496H-0.0078125C-0.0078125 3.16496 0.910966 4.835 1.20785 6.52087C0.44767 7.93877 -0.0078125 9.64784 -0.0078125 11.5268C-0.0078125 16.1856 2.80399 19.9783 6.2541 19.9783C8.22838 19.9783 9.97688 18.7302 11.1332 16.808L12.459 19.5004L13.8059 16.7743C14.4131 17.8295 15.2004 18.6707 16.1005 19.2261C17.6185 20.1544 19.3233 20.2589 20.8858 19.4782C24.1211 17.8577 25.7766 12.9784 24.5891 8.61079C24.3848 7.86284 24.1008 7.15913 23.7461 6.52192L23.7671 6.5272ZM20.4624 17.8841C19.8474 18.1951 19.1928 18.3374 18.5366 18.3027C17.8805 18.2679 17.2361 18.0567 16.6411 17.6816C15.7949 17.1517 15.0768 16.3094 14.57 15.2519C14.3575 14.8299 14.1793 14.3731 14.045 13.8847C13.8895 13.3287 13.8168 12.7579 13.7762 12.1756C13.6989 11.0056 13.8207 9.82403 14.195 8.72473C14.47 7.91796 14.8603 7.19249 15.3435 6.58997C15.8267 5.98745 16.3933 5.51976 17.0107 5.21374C19.6037 3.92771 22.4796 5.72435 23.432 9.21319C24.3883 12.7031 23.0578 16.5886 20.478 17.8799H20.4624V17.8841ZM10.3917 15.3036C9.93402 16.2176 9.31754 16.9663 8.59615 17.4843C7.87475 18.0024 7.07039 18.274 6.25332 18.2755C3.49933 18.2755 1.25238 15.2424 1.25238 11.5278C1.25238 7.81322 3.49933 4.77487 6.25332 4.77487C9.00888 4.77487 11.2504 7.81322 11.2504 11.5278C11.2504 11.7589 11.2222 11.9667 11.2011 12.203C11.116 13.3413 10.8472 14.4185 10.3917 15.3247V15.3036ZM3.07432 11.4392C3.07432 13.7475 4.46576 15.6159 6.17129 15.6159C7.87681 15.6159 9.26435 13.7475 9.26435 11.4392C9.26435 10.3315 8.93848 9.26913 8.35841 8.48585C7.77835 7.70256 6.99162 7.26252 6.17129 7.26252C5.35096 7.26252 4.56422 7.70256 3.98416 8.48585C3.4041 9.26913 3.07822 10.3315 3.07822 11.4392H3.07432ZM15.6278 11.4392C15.6272 12.265 15.808 13.0724 16.1474 13.7594C16.4867 14.4463 16.9693 14.9819 17.5342 15.2984C18.099 15.6148 18.7207 15.6979 19.3205 15.537C19.9203 15.3762 20.4713 14.9788 20.9037 14.3949C21.3362 13.8111 21.6307 13.0672 21.7499 12.2573C21.8692 11.4473 21.8078 10.6079 21.5736 9.84507C21.3394 9.08227 20.9429 8.43043 20.4343 7.97203C19.9256 7.51363 19.3277 7.26928 18.7162 7.26991C17.8971 7.27102 17.1117 7.71041 16.5319 8.49185C15.9522 9.27329 15.6254 10.3331 15.6231 11.4392H15.6278ZM4.14544 11.4392C4.14564 10.7156 4.35807 10.0215 4.73626 9.50889C5.11445 8.99623 5.62761 8.7067 6.16347 8.70363C7.27054 8.70363 8.19401 9.9348 8.19401 11.4392C8.19401 12.1671 7.97987 12.8652 7.59871 13.3799C7.21754 13.8946 6.70057 14.1838 6.16152 14.1838C5.62247 14.1838 5.1055 13.8946 4.72434 13.3799C4.34317 12.8652 4.12904 12.1671 4.12904 11.4392H4.14544ZM16.6826 11.4392C16.6826 10.7137 16.896 10.0179 17.2759 9.50486C17.6558 8.99184 18.1711 8.70363 18.7084 8.70363C19.2396 8.71963 19.7449 9.01632 20.1158 9.52997C20.4867 10.0436 20.6937 10.7332 20.6921 11.4507C20.6906 12.1681 20.4807 12.8561 20.1076 13.3668C19.7345 13.8776 19.2279 14.1703 18.6967 14.1822C18.4298 14.1826 18.1656 14.1119 17.919 13.9742C17.6724 13.8365 17.4483 13.6345 17.2596 13.3797C17.0709 13.1249 16.9213 12.8224 16.8194 12.4894C16.7174 12.1564 16.6651 11.7995 16.6654 11.4392H16.6826ZM12.4582 1.47698C14.7083 1.47698 16.7396 2.02135 18.5217 3.1101C17.8437 3.1343 17.1729 3.30491 16.5349 3.61544C15.7613 3.99426 15.0516 4.57839 14.4478 5.33341C13.844 6.08842 13.3582 6.99904 13.0192 8.01156C12.6941 8.93995 12.523 9.9232 12.4574 10.918C12.3421 8.81504 11.6502 6.84567 10.5169 5.39477C9.38362 3.94388 7.89043 3.11572 6.3291 3.07212C8.11119 2.03929 10.1792 1.47803 12.4129 1.47803L12.4582 1.47698Z" fill="white"/>
</g>
<defs>
<clipPath id="clip0_1152_3258">
<rect width="25" height="20" fill="white" transform="translate(-0.00390625)"/>
</clipPath>
</defs>
</svg>
