<svg width="19" height="20" viewBox="0 0 19 20" fill="none" xmlns="http://www.w3.org/2000/svg">
<path d="M5.50531 0H13.4842C16.5237 0 18.9934 2.6 18.9934 5.8V14.2C18.9934 15.7383 18.413 17.2135 17.3798 18.3012C16.3466 19.3889 14.9453 20 13.4842 20H5.50531C2.46574 20 -0.00390625 17.4 -0.00390625 14.2V5.8C-0.00390625 4.26174 0.576527 2.78649 1.60971 1.69878C2.64288 0.61107 4.04417 0 5.50531 0ZM5.31534 2C4.40842 2 3.53866 2.37928 2.89738 3.05442C2.25609 3.72955 1.89582 4.64522 1.89582 5.6V14.4C1.89582 16.39 3.4251 18 5.31534 18H13.6741C14.5811 18 15.4508 17.6207 16.0921 16.9456C16.7334 16.2705 17.0937 15.3548 17.0937 14.4V5.6C17.0937 3.61 15.5644 2 13.6741 2H5.31534ZM14.4815 3.5C14.7964 3.5 15.0984 3.6317 15.3211 3.86612C15.5438 4.10054 15.6689 4.41848 15.6689 4.75C15.6689 5.08152 15.5438 5.39946 15.3211 5.63388C15.0984 5.8683 14.7964 6 14.4815 6C14.1666 6 13.8646 5.8683 13.642 5.63388C13.4193 5.39946 13.2942 5.08152 13.2942 4.75C13.2942 4.41848 13.4193 4.10054 13.642 3.86612C13.8646 3.6317 14.1666 3.5 14.4815 3.5ZM9.49474 5C10.7543 5 11.9623 5.52678 12.853 6.46447C13.7437 7.40215 14.2441 8.67392 14.2441 10C14.2441 11.3261 13.7437 12.5979 12.853 13.5355C11.9623 14.4732 10.7543 15 9.49474 15C8.23514 15 7.02713 14.4732 6.13646 13.5355C5.24579 12.5979 4.74542 11.3261 4.74542 10C4.74542 8.67392 5.24579 7.40215 6.13646 6.46447C7.02713 5.52678 8.23514 5 9.49474 5ZM9.49474 7C8.73898 7 8.01417 7.31607 7.47977 7.87868C6.94537 8.44129 6.64515 9.20435 6.64515 10C6.64515 10.7956 6.94537 11.5587 7.47977 12.1213C8.01417 12.6839 8.73898 13 9.49474 13C10.2505 13 10.9753 12.6839 11.5097 12.1213C12.0441 11.5587 12.3443 10.7956 12.3443 10C12.3443 9.20435 12.0441 8.44129 11.5097 7.87868C10.9753 7.31607 10.2505 7 9.49474 7Z" fill="white"/>
</svg>
