<svg xmlns="http://www.w3.org/2000/svg" version="1.1" xmlns:xlink="http://www.w3.org/1999/xlink" xmlns:svgjs="http://svgjs.dev/svgjs" width="2000" height="737" viewBox="0 0 2000 737"><g transform="matrix(1,0,0,1,-1.2121212121212466,0.49575276138278923)"><svg viewBox="0 0 396 146" data-background-color="#ffffff" preserveAspectRatio="xMidYMid meet" height="737" width="2000" xmlns="http://www.w3.org/2000/svg" xmlns:xlink="http://www.w3.org/1999/xlink"><g id="tight-bounds" transform="matrix(1,0,0,1,0.2400000000000091,-0.09820882382888385)"><svg viewBox="0 0 395.52 146.19641764765777" height="146.19641764765777" width="395.52"><g><svg viewBox="0 0 397.4976 146.92739973589605" height="146.19641764765777" width="395.52"><g><rect width="397.4976" height="4.20296454055949" x="0" y="75.41182331923567" fill="#ffffff" opacity="1" stroke-width="0" stroke="transparent" fill-opacity="1" class="rect-qz-0" data-fill-palette-color="primary" rx="1%" id="qz-0" data-palette-color="#03424c"></rect></g><g><rect width="397.4976" height="4.20296454055949" x="0" y="85.11605034743847" fill="#ffffff" opacity="1" stroke-width="0" stroke="transparent" fill-opacity="1" class="rect-qz-1" data-fill-palette-color="primary" rx="1%" id="qz-1" data-palette-color="#03424c"></rect></g><g transform="matrix(1,0,0,1,0.9887999999999693,100.32153986328458)"><svg viewBox="0 0 395.52000000000004 46.60585987261146" height="46.60585987261146" width="395.52000000000004"><g id="textblocktransform"><svg viewBox="0 0 395.52000000000004 46.60585987261146" height="46.60585987261146" width="395.52000000000004" id="textblock"><g><svg viewBox="0 0 395.52000000000004 46.60585987261146" height="46.60585987261146" width="395.52000000000004"><g transform="matrix(1,0,0,1,0,0)"><svg width="395.52000000000004" viewBox="3.8 -36.65 313.96 37" height="46.60585987261146" data-palette-color="#03424c"><path d="M5.45 0L5.45 0Q4.8 0 4.3-0.33 3.8-0.65 3.8-1.3L3.8-1.3 3.8-35.35Q3.8-35.85 4.17-36.18 4.55-36.5 5.2-36.55L5.2-36.55 14.4-36.55Q17.3-36.55 19.65-35.5 22-34.45 23.35-32.13 24.7-29.8 24.7-25.95L24.7-25.95 24.7-25.45Q24.7-21.55 23.33-19.23 21.95-16.9 19.58-15.85 17.2-14.8 14.3-14.8L14.3-14.8 7.1-14.8 7.1-1.3Q7.1-0.65 6.58-0.33 6.05 0 5.45 0ZM7.1-33.5L7.1-17.65 14.3-17.65Q17.65-17.65 19.53-19.53 21.4-21.4 21.4-25.3L21.4-25.3 21.4-25.9Q21.4-29.8 19.53-31.65 17.65-33.5 14.3-33.5L14.3-33.5 7.1-33.5ZM33.7 0.35L33.7 0.35Q30.9 0.35 28.9-1.28 26.9-2.9 26.9-6.25L26.9-6.25Q26.9-9 28.37-10.48 29.85-11.95 32.47-12.53 35.1-13.1 38.55-13.1L38.55-13.1 41.1-13.1 41.1-14.3Q41.1-15.9 40.52-17.48 39.95-19.05 38.67-20.08 37.4-21.1 35.2-21.1L35.2-21.1Q33.55-21.1 32.5-20.75 31.45-20.4 30.85-20.03 30.25-19.65 29.85-19.65L29.85-19.65Q29.25-19.65 28.9-20.25 28.55-20.85 28.55-21.4L28.55-21.4Q28.55-22.05 29.57-22.63 30.6-23.2 32.17-23.58 33.75-23.95 35.3-23.95L35.3-23.95Q38.65-23.95 40.62-22.58 42.6-21.2 43.47-19 44.35-16.8 44.35-14.3L44.35-14.3 44.35-1.3Q44.35-0.75 43.92-0.38 43.5 0 42.75 0L42.75 0Q42.15 0 41.7-0.38 41.25-0.75 41.25-1.3L41.25-1.3 41.25-3.5Q39.95-2.05 38.1-0.85 36.25 0.35 33.7 0.35ZM34.5-2.4L34.5-2.4Q36.15-2.4 37.65-3.25 39.15-4.1 40.12-5.33 41.1-6.55 41.1-7.65L41.1-7.65 41.1-10.85 39-10.85Q36.75-10.85 34.72-10.58 32.7-10.3 31.42-9.4 30.15-8.5 30.15-6.55L30.15-6.55Q30.15-4.4 31.42-3.4 32.7-2.4 34.5-2.4ZM59.6 0L58.2 0Q54.35 0 52.3-1.75 50.25-3.5 50.25-7.35L50.25-7.35 50.25-33.7Q50.25-34.25 50.77-34.58 51.3-34.9 51.85-34.9L51.85-34.9Q52.5-34.9 53-34.58 53.5-34.25 53.5-33.7L53.5-33.7 53.5-23.65 60-23.65Q60.5-23.65 60.8-23.25 61.1-22.85 61.1-22.3L61.1-22.3Q61.1-21.75 60.8-21.35 60.5-20.95 60-20.95L60-20.95 53.5-20.95 53.5-7.35Q53.5-4.9 54.55-3.93 55.6-2.95 58.2-2.95L58.2-2.95 59.6-2.95Q60.3-2.95 60.67-2.53 61.05-2.1 61.05-1.5L61.05-1.5Q61.05-0.9 60.67-0.45 60.3 0 59.6 0L59.6 0ZM66.69 0L66.69 0Q66.04 0 65.57-0.4 65.09-0.8 65.09-1.3L65.09-1.3 65.09-22.45Q65.09-23 65.57-23.33 66.04-23.65 66.69-23.65L66.69-23.65Q67.39-23.65 67.87-23.33 68.34-23 68.34-22.45L68.34-22.45 68.34-1.3Q68.34-0.8 67.87-0.4 67.39 0 66.69 0ZM66.69-30.65L66.69-30.65Q65.79-30.65 65.14-31.28 64.49-31.9 64.49-32.75L64.49-32.75Q64.49-33.6 65.14-34.2 65.79-34.8 66.69-34.8L66.69-34.8Q67.64-34.8 68.27-34.2 68.89-33.6 68.89-32.75L68.89-32.75Q68.89-31.9 68.27-31.28 67.64-30.65 66.69-30.65ZM83.14 0.35L83.14 0.35Q80.59 0.35 78.44-0.98 76.29-2.3 74.97-4.48 73.64-6.65 73.64-9.15L73.64-9.15 73.64-14.6Q73.64-17.1 74.94-19.23 76.24-21.35 78.39-22.65 80.54-23.95 83.14-23.95L83.14-23.95Q85.69-23.95 87.87-22.68 90.04-21.4 91.34-19.3 92.64-17.2 92.64-14.6L92.64-14.6 92.64-9.15Q92.64-6.7 91.34-4.5 90.04-2.3 87.87-0.98 85.69 0.35 83.14 0.35ZM83.14-2.65L83.14-2.65Q84.89-2.65 86.29-3.58 87.69-4.5 88.54-6 89.39-7.5 89.39-9.15L89.39-9.15 89.39-14.6Q89.39-16.2 88.57-17.65 87.74-19.1 86.32-20.03 84.89-20.95 83.14-20.95L83.14-20.95Q81.39-20.95 79.99-20.03 78.59-19.1 77.74-17.65 76.89-16.2 76.89-14.6L76.89-14.6 76.89-9.15Q76.89-7.5 77.74-6 78.59-4.5 80.02-3.58 81.44-2.65 83.14-2.65ZM116.94 0.35L116.94 0.35Q113.74 0.35 111.44-0.63 109.14-1.6 107.91-2.88 106.69-4.15 106.69-5.05L106.69-5.05Q106.69-5.45 106.91-5.9 107.14-6.35 107.49-6.63 107.84-6.9 108.19-6.9L108.19-6.9Q108.69-6.9 109.21-6.28 109.74-5.65 110.61-4.83 111.49-4 112.94-3.38 114.39-2.75 116.74-2.75L116.74-2.75Q119.09-2.75 120.76-3.53 122.44-4.3 123.31-5.83 124.19-7.35 124.19-9.65L124.19-9.65Q124.19-12.05 123.29-13.53 122.39-15 120.91-15.93 119.44-16.85 117.69-17.53 115.94-18.2 114.16-18.88 112.39-19.55 110.91-20.58 109.44-21.6 108.51-23.28 107.59-24.95 107.59-27.55L107.59-27.55Q107.59-30.3 108.59-32.05 109.59-33.8 111.16-34.8 112.74-35.8 114.59-36.23 116.44-36.65 118.19-36.65L118.19-36.65Q119.59-36.65 121.06-36.43 122.54-36.2 123.79-35.8 125.04-35.4 125.81-34.85 126.59-34.3 126.59-33.6L126.59-33.6Q126.59-33.25 126.41-32.83 126.24-32.4 125.94-32.08 125.64-31.75 125.14-31.75L125.14-31.75Q124.69-31.75 123.89-32.23 123.09-32.7 121.71-33.18 120.34-33.65 118.14-33.65L118.14-33.65Q116.34-33.65 114.66-33.13 112.99-32.6 111.94-31.35 110.89-30.1 110.89-27.85L110.89-27.85Q110.89-25.85 111.81-24.63 112.74-23.4 114.21-22.65 115.69-21.9 117.44-21.28 119.19-20.65 120.96-19.88 122.74-19.1 124.21-17.93 125.69-16.75 126.59-14.85 127.49-12.95 127.49-9.95L127.49-9.95Q127.49-6.4 126.14-4.13 124.79-1.85 122.41-0.75 120.04 0.35 116.94 0.35ZM137.93 0.35L137.93 0.35Q135.13 0.35 133.13-1.28 131.13-2.9 131.13-6.25L131.13-6.25Q131.13-9 132.61-10.48 134.08-11.95 136.71-12.53 139.33-13.1 142.78-13.1L142.78-13.1 145.33-13.1 145.33-14.3Q145.33-15.9 144.76-17.48 144.18-19.05 142.91-20.08 141.63-21.1 139.43-21.1L139.43-21.1Q137.78-21.1 136.73-20.75 135.68-20.4 135.08-20.03 134.48-19.65 134.08-19.65L134.08-19.65Q133.48-19.65 133.13-20.25 132.78-20.85 132.78-21.4L132.78-21.4Q132.78-22.05 133.81-22.63 134.83-23.2 136.41-23.58 137.98-23.95 139.53-23.95L139.53-23.95Q142.88-23.95 144.86-22.58 146.83-21.2 147.71-19 148.58-16.8 148.58-14.3L148.58-14.3 148.58-1.3Q148.58-0.75 148.16-0.38 147.73 0 146.98 0L146.98 0Q146.38 0 145.93-0.38 145.48-0.75 145.48-1.3L145.48-1.3 145.48-3.5Q144.18-2.05 142.33-0.85 140.48 0.35 137.93 0.35ZM138.73-2.4L138.73-2.4Q140.38-2.4 141.88-3.25 143.38-4.1 144.36-5.33 145.33-6.55 145.33-7.65L145.33-7.65 145.33-10.85 143.23-10.85Q140.98-10.85 138.96-10.58 136.93-10.3 135.66-9.4 134.38-8.5 134.38-6.55L134.38-6.55Q134.38-4.4 135.66-3.4 136.93-2.4 138.73-2.4ZM156.18 0L156.18 0Q155.53 0 155.06-0.4 154.58-0.8 154.58-1.3L154.58-1.3 154.58-22.45Q154.58-23 155.06-23.33 155.53-23.65 156.18-23.65L156.18-23.65Q156.83-23.65 157.28-23.33 157.73-23 157.73-22.45L157.73-22.45 157.73-20.15Q158.53-21.6 160.23-22.78 161.93-23.95 164.43-23.95L164.43-23.95Q166.83-23.95 168.86-22.68 170.88-21.4 172.08-19.3 173.28-17.2 173.28-14.6L173.28-14.6 173.28-1.3Q173.28-0.65 172.78-0.33 172.28 0 171.63 0L171.63 0Q171.08 0 170.56-0.33 170.03-0.65 170.03-1.3L170.03-1.3 170.03-14.6Q170.03-16.2 169.18-17.65 168.33-19.1 166.93-20.03 165.53-20.95 163.83-20.95L163.83-20.95Q162.33-20.95 160.96-20.18 159.58-19.4 158.71-18 157.83-16.6 157.83-14.6L157.83-14.6 157.83-1.3Q157.83-0.8 157.36-0.4 156.88 0 156.18 0ZM188.53 0L187.13 0Q183.28 0 181.23-1.75 179.18-3.5 179.18-7.35L179.18-7.35 179.18-33.7Q179.18-34.25 179.7-34.58 180.23-34.9 180.78-34.9L180.78-34.9Q181.43-34.9 181.93-34.58 182.43-34.25 182.43-33.7L182.43-33.7 182.43-23.65 188.93-23.65Q189.43-23.65 189.73-23.25 190.03-22.85 190.03-22.3L190.03-22.3Q190.03-21.75 189.73-21.35 189.43-20.95 188.93-20.95L188.93-20.95 182.43-20.95 182.43-7.35Q182.43-4.9 183.48-3.93 184.53-2.95 187.13-2.95L187.13-2.95 188.53-2.95Q189.23-2.95 189.6-2.53 189.98-2.1 189.98-1.5L189.98-1.5Q189.98-0.9 189.6-0.45 189.23 0 188.53 0L188.53 0ZM199.28 0.35L199.28 0.35Q196.48 0.35 194.48-1.28 192.48-2.9 192.48-6.25L192.48-6.25Q192.48-9 193.95-10.48 195.43-11.95 198.05-12.53 200.68-13.1 204.13-13.1L204.13-13.1 206.68-13.1 206.68-14.3Q206.68-15.9 206.1-17.48 205.53-19.05 204.25-20.08 202.98-21.1 200.78-21.1L200.78-21.1Q199.13-21.1 198.08-20.75 197.03-20.4 196.43-20.03 195.83-19.65 195.43-19.65L195.43-19.65Q194.83-19.65 194.48-20.25 194.13-20.85 194.13-21.4L194.13-21.4Q194.13-22.05 195.15-22.63 196.18-23.2 197.75-23.58 199.33-23.95 200.88-23.95L200.88-23.95Q204.23-23.95 206.2-22.58 208.18-21.2 209.05-19 209.93-16.8 209.93-14.3L209.93-14.3 209.93-1.3Q209.93-0.75 209.5-0.38 209.08 0 208.33 0L208.33 0Q207.73 0 207.28-0.38 206.83-0.75 206.83-1.3L206.83-1.3 206.83-3.5Q205.53-2.05 203.68-0.85 201.83 0.35 199.28 0.35ZM200.08-2.4L200.08-2.4Q201.73-2.4 203.23-3.25 204.73-4.1 205.7-5.33 206.68-6.55 206.68-7.65L206.68-7.65 206.68-10.85 204.58-10.85Q202.33-10.85 200.3-10.58 198.28-10.3 197-9.4 195.73-8.5 195.73-6.55L195.73-6.55Q195.73-4.4 197-3.4 198.28-2.4 200.08-2.4ZM244.17 0L228.12 0Q227.57 0 227.1-0.33 226.62-0.65 226.62-1.3L226.62-1.3 226.62-35.35Q226.62-36 227.12-36.27 227.62-36.55 228.27-36.55L228.27-36.55Q228.87-36.55 229.4-36.27 229.92-36 229.92-35.35L229.92-35.35 229.92-3.05 244.17-3.05Q244.77-3.05 245.02-2.58 245.27-2.1 245.27-1.55L245.27-1.55Q245.27-0.95 245.02-0.48 244.77 0 244.17 0L244.17 0ZM256.92 0.35L256.92 0.35Q254.27 0.35 252.12-0.95 249.97-2.25 248.67-4.42 247.37-6.6 247.37-9.05L247.37-9.05 247.37-22.4Q247.37-22.85 247.87-23.25 248.37-23.65 249.02-23.65L249.02-23.65Q249.67-23.65 250.14-23.25 250.62-22.85 250.62-22.4L250.62-22.4 250.62-9.05Q250.62-7.4 251.47-5.95 252.32-4.5 253.72-3.58 255.12-2.65 256.87-2.65L256.87-2.65Q258.67-2.65 260.07-3.55 261.47-4.45 262.29-5.93 263.12-7.4 263.12-9.05L263.12-9.05 263.12-22.45Q263.12-22.95 263.62-23.3 264.12-23.65 264.77-23.65L264.77-23.65Q265.52-23.65 265.94-23.3 266.37-22.95 266.37-22.45L266.37-22.45 266.37-9.05Q266.37-6.5 265.09-4.38 263.82-2.25 261.64-0.95 259.47 0.35 256.92 0.35ZM286.92 0L271.77 0Q271.17 0 270.82-0.4 270.47-0.8 270.47-1.3L270.47-1.3Q270.47-1.6 270.62-1.95 270.77-2.3 270.97-2.55L270.97-2.55 283.17-20.8 272.17-20.8Q271.67-20.8 271.29-21.2 270.92-21.6 270.92-22.2L270.92-22.2Q270.92-22.8 271.29-23.23 271.67-23.65 272.17-23.65L272.17-23.65 286.27-23.65Q286.82-23.65 287.19-23.3 287.57-22.95 287.57-22.35L287.57-22.35Q287.57-21.75 287.12-21.15L287.12-21.15 274.87-2.9 286.92-2.9Q287.47-2.9 287.82-2.48 288.17-2.05 288.17-1.4L288.17-1.4Q288.17-0.85 287.82-0.43 287.47 0 286.92 0L286.92 0ZM294.01 0L294.01 0Q293.36 0 292.89-0.4 292.41-0.8 292.41-1.3L292.41-1.3 292.41-22.45Q292.41-23 292.89-23.33 293.36-23.65 294.01-23.65L294.01-23.65Q294.71-23.65 295.19-23.33 295.66-23 295.66-22.45L295.66-22.45 295.66-1.3Q295.66-0.8 295.19-0.4 294.71 0 294.01 0ZM294.01-30.65L294.01-30.65Q293.11-30.65 292.46-31.28 291.81-31.9 291.81-32.75L291.81-32.75Q291.81-33.6 292.46-34.2 293.11-34.8 294.01-34.8L294.01-34.8Q294.96-34.8 295.59-34.2 296.21-33.6 296.21-32.75L296.21-32.75Q296.21-31.9 295.59-31.28 294.96-30.65 294.01-30.65ZM307.11 0.35L307.11 0.35Q304.31 0.35 302.31-1.28 300.31-2.9 300.31-6.25L300.31-6.25Q300.31-9 301.79-10.48 303.26-11.95 305.89-12.53 308.51-13.1 311.96-13.1L311.96-13.1 314.51-13.1 314.51-14.3Q314.51-15.9 313.94-17.48 313.36-19.05 312.09-20.08 310.81-21.1 308.61-21.1L308.61-21.1Q306.96-21.1 305.91-20.75 304.86-20.4 304.26-20.03 303.66-19.65 303.26-19.65L303.26-19.65Q302.66-19.65 302.31-20.25 301.96-20.85 301.96-21.4L301.96-21.4Q301.96-22.05 302.99-22.63 304.01-23.2 305.59-23.58 307.16-23.95 308.71-23.95L308.71-23.95Q312.06-23.95 314.04-22.58 316.01-21.2 316.89-19 317.76-16.8 317.76-14.3L317.76-14.3 317.76-1.3Q317.76-0.75 317.34-0.38 316.91 0 316.16 0L316.16 0Q315.56 0 315.11-0.38 314.66-0.75 314.66-1.3L314.66-1.3 314.66-3.5Q313.36-2.05 311.51-0.85 309.66 0.35 307.11 0.35ZM307.91-2.4L307.91-2.4Q309.56-2.4 311.06-3.25 312.56-4.1 313.54-5.33 314.51-6.55 314.51-7.65L314.51-7.65 314.51-10.85 312.41-10.85Q310.16-10.85 308.14-10.58 306.11-10.3 304.84-9.4 303.56-8.5 303.56-6.55L303.56-6.55Q303.56-4.4 304.84-3.4 306.11-2.4 307.91-2.4Z" opacity="1" transform="matrix(1,0,0,1,0,0)" fill="#ffffff" class="wordmark-text-0" data-fill-palette-color="primary" id="text-0"></path></svg></g></svg></g></svg></g></svg></g><g transform="matrix(1,0,0,1,172.12992993504704,0)"><svg viewBox="0 0 53.23774012990591 64.40929834394905" height="64.40929834394905" width="53.23774012990591"><g><svg xmlns="http://www.w3.org/2000/svg" xmlns:xlink="http://www.w3.org/1999/xlink" version="1.1" x="0" y="0" viewBox="29.284000000000006 24.937001583902333 41.431 50.12499841609767" enable-background="new 0 0 100 100" xml:space="preserve" height="64.40929834394905" width="53.23774012990591" class="icon-icon-0" data-fill-palette-color="accent" id="icon-0"><g fill="#f56607" data-fill-palette-color="accent"><path fill="#ffffff" d="M70.715 51.872c0-5.887-2.475-11.201-6.434-14.973V26.444c0-0.746-0.548-1.378-1.286-1.485-0.294-0.041-1.862-0.177-3.643 1.365-1.41 1.222-2.554 3.134-3.433 5.718-1.876-0.568-3.859-0.885-5.919-0.885-0.62 0-1.23 0.04-1.836 0.097v-0.413-4.397c0-0.829-0.671-1.5-1.5-1.5s-1.5 0.671-1.5 1.5v4.397 0.909V34.6v0.617c0 4.287-2.774 7.774-6.184 7.774-3.41 0-6.185-3.487-6.185-7.774v-8.772c0-0.829-0.671-1.5-1.5-1.5s-1.5 0.671-1.5 1.5v8.772c0 2.555 0.766 4.902 2.037 6.75-1.621 2.94-2.548 6.313-2.548 9.905 0 6.715 3.227 12.677 8.195 16.464v5.226c0 0.829 0.671 1.5 1.5 1.5s1.5-0.671 1.5-1.5V70.25c2.854 1.484 6.086 2.336 9.52 2.336 4.161 0 8.032-1.245 11.281-3.365v4.341c0 0.829 0.671 1.5 1.5 1.5s1.5-0.671 1.5-1.5v-6.723C68.236 63.064 70.715 57.757 70.715 51.872zM32.047 51.872c0-2.776 0.649-5.396 1.785-7.739 1.075 0.857 2.315 1.442 3.649 1.701v18.881C34.134 61.452 32.047 56.904 32.047 51.872zM50 69.825c-3.499 0-6.756-1.021-9.52-2.759V45.833c4.351-0.844 7.684-5.277 7.684-10.617v-1.188c0.604-0.065 1.214-0.109 1.836-0.109 1.797 0 3.529 0.272 5.165 0.771-0.933 3.954-1.402 9.068-1.402 15.313 0 2.978 1.107 8.016 5.259 8.016 0.829 0 1.5-0.671 1.5-1.5s-0.671-1.5-1.5-1.5c-1.861 0-2.255-3.958-2.259-5.016 0-6.54 0.535-11.135 1.272-14.368 0.236-0.963 0.501-1.843 0.72-2.51-0.007-0.003-0.015-0.006-0.022-0.01 0.798-2.388 1.694-3.667 2.389-4.343 0.054-0.053 0.108-0.103 0.16-0.149v5.899 3.403 27.894C58.196 68.319 54.272 69.825 50 69.825zM64.281 41.024c2.299 3.015 3.672 6.771 3.672 10.848 0 4.072-1.378 7.819-3.672 10.834V41.024z" data-fill-palette-color="accent"></path><path fill="#ffffff" d="M36.48 40.462c0.829 0 1.5-0.671 1.5-1.5V26.444c0-0.829-0.671-1.5-1.5-1.5s-1.5 0.671-1.5 1.5v12.518C34.98 39.791 35.652 40.462 36.48 40.462z" data-fill-palette-color="accent"></path><path fill="#ffffff" d="M41.391 40.462c0.829 0 1.5-0.671 1.5-1.5V26.444c0-0.829-0.671-1.5-1.5-1.5s-1.5 0.671-1.5 1.5v12.518C39.891 39.791 40.562 40.462 41.391 40.462z" data-fill-palette-color="accent"></path></g></svg></g></svg></g><g></g></svg></g><defs></defs></svg><rect width="395.52" height="146.19641764765777" fill="none" stroke="none" visibility="hidden"></rect></g></svg></g></svg>