<svg width="104" height="107" viewBox="0 0 104 107" fill="none" xmlns="http://www.w3.org/2000/svg">
<g clip-path="url(#clip0_1162_1427)">
<g clip-path="url(#clip1_1162_1427)">
<g clip-path="url(#clip2_1162_1427)">
<g clip-path="url(#clip3_1162_1427)">
<g clip-path="url(#clip4_1162_1427)">
<g clip-path="url(#clip5_1162_1427)">
<path d="M93.0506 47.8838C93.0506 37.4181 88.2823 27.9711 80.655 21.2655V2.67907C80.655 1.35287 79.5992 0.229327 78.1774 0.0391078C77.611 -0.03378 74.5901 -0.275555 71.1589 2.46574C68.4424 4.63815 66.2384 8.03721 64.5449 12.6309C60.9307 11.6212 57.1103 11.0576 53.1415 11.0576C51.947 11.0576 50.7718 11.1287 49.6043 11.2301V10.4958V2.67907C49.6043 1.20531 48.3116 0.0124426 46.7144 0.0124426C45.1173 0.0124426 43.8246 1.20531 43.8246 2.67907V10.4958V12.1118V17.1784V18.2753C43.8246 25.8965 38.4802 32.0955 31.9106 32.0955C25.341 32.0955 19.9947 25.8965 19.9947 18.2753V2.68085C19.9947 1.20709 18.702 0.0142194 17.1048 0.0142194C15.5077 0.0142194 14.215 1.20709 14.215 2.68085V18.2753C14.215 22.8174 15.6907 26.9898 18.1394 30.2751C15.0164 35.5017 13.2305 41.4981 13.2305 47.8838C13.2305 59.8214 19.4475 70.4203 29.0188 77.1527V86.4432C29.0188 87.9169 30.3115 89.1098 31.9087 89.1098C33.5058 89.1098 34.7985 87.9169 34.7985 86.4432V80.5553C40.297 83.1935 46.5237 84.7081 53.1396 84.7081C61.1561 84.7081 68.6139 82.4948 74.8733 78.726V86.4432C74.8733 87.9169 76.1661 89.1098 77.7632 89.1098C79.3603 89.1098 80.6531 87.9169 80.6531 86.4432V74.4914C88.2746 67.7803 93.0506 58.3458 93.0506 47.8838ZM18.5536 47.8838C18.5536 42.9487 19.804 38.291 21.9926 34.1257C24.0636 35.6493 26.4526 36.6892 29.0226 37.1497V70.7154C22.5744 64.9146 18.5536 56.8294 18.5536 47.8838ZM53.1415 79.7997C46.4004 79.7997 40.1255 77.9847 34.8005 74.8949V37.1479C43.183 35.6475 49.6043 27.7667 49.6043 18.2735V16.1615C50.768 16.046 51.9432 15.9678 53.1415 15.9678C56.6036 15.9678 59.9404 16.4513 63.0923 17.3384C61.2948 24.3676 60.3912 33.4591 60.3912 44.5611C60.3912 49.8553 62.5239 58.8116 70.5231 58.8116C72.1202 58.8116 73.413 57.6187 73.413 56.145C73.413 54.6712 72.1202 53.4783 70.5231 53.4783C66.9377 53.4783 66.1787 46.442 66.171 44.5611C66.171 32.9346 67.2017 24.7659 68.6216 19.0184C69.0762 17.3064 69.5868 15.742 70.0087 14.5562C69.9952 14.5509 69.9798 14.5456 69.9663 14.5385C71.5037 10.2932 73.23 8.01944 74.5689 6.81768C74.673 6.72346 74.777 6.63457 74.8772 6.55279V17.0398V23.0894V72.6781C68.9318 77.1224 61.3719 79.7997 53.1415 79.7997ZM80.655 28.5987C85.0842 33.9586 87.7294 40.6359 87.7294 47.8838C87.7294 55.1228 85.0746 61.784 80.655 67.1439V28.5987Z" fill="#FFF8EE"/>
<path d="M27.0969 27.5969C28.694 27.5969 29.9868 26.4041 29.9868 24.9303V2.67639C29.9868 1.20264 28.694 0.00976562 27.0969 0.00976562C25.4998 0.00976562 24.207 1.20264 24.207 2.67639V24.9303C24.207 26.4041 25.5017 27.5969 27.0969 27.5969Z" fill="white"/>
<path d="M36.5539 27.5969C38.1511 27.5969 39.4438 26.4041 39.4438 24.9303V2.67639C39.4438 1.20264 38.1511 0.00976562 36.5539 0.00976562C34.9568 0.00976562 33.6641 1.20264 33.6641 2.67639V24.9303C33.6641 26.4041 34.9568 27.5969 36.5539 27.5969Z" fill="white"/>
</g>
</g>
</g>
</g>
</g>
</g>
<defs>
<clipPath id="clip0_1162_1427">
<rect width="104" height="107" fill="white"/>
</clipPath>
<clipPath id="clip1_1162_1427">
<rect width="597" height="203" fill="white" transform="translate(-245.359 0.134766)"/>
</clipPath>
<clipPath id="clip2_1162_1427">
<rect width="595.974" height="203.273" fill="white" transform="translate(-244.848)"/>
</clipPath>
<clipPath id="clip3_1162_1427">
<rect width="595.974" height="203.273" fill="white" transform="translate(-244.848)"/>
</clipPath>
<clipPath id="clip4_1162_1427">
<rect width="79.8201" height="89.1098" fill="white" transform="translate(13.2305)"/>
</clipPath>
<clipPath id="clip5_1162_1427">
<rect width="79.8201" height="89.1098" fill="white" transform="translate(13.2305)"/>
</clipPath>
</defs>
</svg>
