<svg width="40" height="40" viewBox="0 0 40 40" fill="none" xmlns="http://www.w3.org/2000/svg">
<path d="M39.4733 20C39.4733 30.7699 30.7485 39.5 19.9866 39.5C9.22478 39.5 0.5 30.7699 0.5 20C0.5 9.23013 9.22478 0.5 19.9866 0.5C30.7485 0.5 39.4733 9.23013 39.4733 20Z" stroke="#FFF8EE"/>
<path d="M16.2079 24.8879C15.2532 24.8879 14.4806 25.6691 14.4806 26.6238C14.4806 27.5786 15.2532 28.3598 16.2079 28.3598C17.1627 28.3598 17.9439 27.5786 17.9439 26.6238C17.9439 25.6691 17.1627 24.8879 16.2079 24.8879ZM11 11V12.736H12.736L15.8608 19.324L14.689 21.4506C14.5501 21.6937 14.472 21.9801 14.472 22.2839C14.472 23.2387 15.2532 24.0199 16.2079 24.0199H26.6238V22.2839H16.5725C16.451 22.2839 16.3555 22.1884 16.3555 22.0669L16.3815 21.9627L17.1627 20.5479H23.6293C24.2803 20.5479 24.8531 20.192 25.1483 19.6539L28.2557 14.0206C28.3251 13.8991 28.3598 13.7515 28.3598 13.604C28.3598 13.1266 27.9692 12.736 27.4918 12.736H14.6542L13.8383 11H11ZM24.8879 24.8879C23.9331 24.8879 23.1606 25.6691 23.1606 26.6238C23.1606 27.5786 23.9331 28.3598 24.8879 28.3598C25.8427 28.3598 26.6238 27.5786 26.6238 26.6238C26.6238 25.6691 25.8427 24.8879 24.8879 24.8879Z" fill="#FFF8EE"/>
</svg>
